# xmcd CD database file
#
# Track frame offsets:
#	150
#	13519
#	27881
#	45993
#	60639
#	77989
#	98203
#	111286
#	129857
#	143463
#	165304
#
# Disc length: 2463 seconds
#
# Revision: 0
# Processed by: cddbd v1.5.2PL0 Copyright (c) Steve Scherf et al.
# Submitted via: CDex 1.51
#
DISCID=7b099d0b
DTITLE=Luke Bryan - Doin' My Thing
DYEAR=2009
DGENRE=Country
TTITLE0=Rain Is A Good Thing
TTITLE1=Doin' My Thing
TTITLE2=Do I
TTITLE3=What Country Is
TTITLE4=Someone Else Calling You Baby
TTITLE5=Welcome To The Farm
TTITLE6=Apologize
TTITLE7=Every Time I See You
TTITLE8=Chuggin' Along
TTITLE9=I Did It Again
TTITLE10=Drinkin' Beer And Wastin' Bullets
EXTD=YEAR: 2009
EXTT0=
EXTT1=
EXTT2=
EXTT3=
EXTT4=
EXTT5=
EXTT6=
EXTT7=
EXTT8=
EXTT9=
EXTT10=
PLAYORDER=
